<svg width="70" height="70" viewBox="0 0 70 70" fill="none" xmlns="http://www.w3.org/2000/svg">
<path d="M62.4838 11.4884H40.1645V6H36.004L4 11.5021V59.5116L35.8162 65H40.1645V59.5321H61.0506C62.2333 59.4772 63.5483 59.5664 64.5641 58.853C65.378 57.625 65.1694 56.0882 65.2389 54.7024V14.1502C65.385 12.5861 64.0701 11.3306 62.4838 11.4884ZM27.2098 44.8234C26.048 45.4203 24.3086 44.7959 22.931 44.8919C22.0057 40.3504 20.9273 35.8362 20.0994 31.274C19.2853 35.7058 18.2278 40.0964 17.2956 44.5009C15.9598 44.4323 14.6171 44.3499 13.2742 44.2608C12.1192 38.2235 10.7626 32.2275 9.68417 26.1766C10.8739 26.1218 12.0705 26.0738 13.2602 26.0326C13.9768 30.4027 14.7909 34.7522 15.4171 39.1292C16.3981 34.6424 17.3999 30.1557 18.374 25.669C19.6959 25.5935 21.0178 25.5387 22.3397 25.47C23.265 30.1009 24.2112 34.7248 25.2131 39.335C25.9993 34.5739 26.8689 29.8264 27.7108 25.0721C29.1022 25.0241 30.4937 24.9486 31.8782 24.8663C30.3059 31.5141 28.9283 38.2168 27.2098 44.8234ZM61.9276 56.2739H40.1645V51.9651H58.2536V49.2209H40.1645V45.7907H58.2536V43.0465H40.1645V39.6162H58.2536V36.8721H40.1645V33.4418H58.2536V30.6978H40.1645V27.2674H58.2536V24.5233H40.1645V21.093H58.2536V18.3489H40.1645V14.7263H61.9276V56.2739Z" fill="#2A5699"/>
</svg>
