<svg width="70" height="70" viewBox="0 0 70 70" fill="none" xmlns="http://www.w3.org/2000/svg">
<path d="M40.5475 5.07715V11.34C47.985 11.3815 56.6409 11.2634 64.0719 11.375C65.4763 11.375 65.5375 12.6175 65.555 13.7025C65.6731 26.7006 65.5266 40.0728 65.625 53.0775C65.5987 53.5893 65.6119 55.4837 65.5966 56.0218C65.5484 57.8222 64.6472 57.9009 62.8469 57.9556C62.5581 57.9556 61.7094 57.9687 61.4294 57.9818C54.4709 57.9468 47.5125 57.9621 40.5475 57.9621V64.9228L4.375 59.3556V10.6596L40.5475 5.07715Z" fill="#D33922"/>
<path d="M40.5476 13.4268H63.5163V55.8643H40.5476V50.3124H57.247V47.5233H40.5476V44.0452H57.247V41.2627H40.5541C40.5571 39.8977 40.5527 38.5342 40.541 37.1721C41.9074 37.6645 43.3662 37.8464 44.8117 37.7045C46.2571 37.5626 47.6528 37.1005 48.8973 36.3518C50.1658 35.5186 51.2167 34.3941 51.9622 33.0721C52.7076 31.7501 53.1261 30.269 53.1826 28.7524C50.1201 28.7305 47.0729 28.7393 44.0257 28.7393C44.0257 25.7118 44.0607 22.6864 43.9623 19.6655C42.8204 19.8843 41.6807 20.1249 40.5454 20.3677V13.4289" fill="white"/>
<path d="M45.4255 18.2087C47.7983 18.3574 50.0359 19.3644 51.7209 21.0416C53.4058 22.7189 54.4229 24.952 54.5824 27.3241C51.5199 27.3591 48.4727 27.3459 45.4189 27.3459V18.2087" fill="#D33922"/>
<path d="M15.5314 23.4632C19.3093 23.6447 23.8877 21.9669 27.0202 24.7997C30.0193 28.4397 29.2252 35.1335 24.7802 37.31C23.164 37.95 21.4119 38.1698 19.6877 37.9488C19.6877 40.67 19.6746 43.3913 19.6877 46.1104C18.3067 45.9908 16.9263 45.8748 15.5468 45.7625C15.4833 38.325 15.4702 30.8875 15.5468 23.45" fill="white"/>
<path d="M19.6721 27.2257C21.0436 27.1623 22.7346 26.9129 23.6664 28.1992C24.0404 28.8992 24.2434 29.6776 24.259 30.4711C24.2746 31.2645 24.1023 32.0504 23.7561 32.7645C22.9621 34.1973 21.1683 34.0595 19.7836 34.2257C19.6371 31.8939 19.6524 29.5642 19.6721 27.2257Z" fill="#D33922"/>
</svg>
