<svg width="70" height="70" viewBox="0 0 70 70" fill="none" xmlns="http://www.w3.org/2000/svg">
<path fill-rule="evenodd" clip-rule="evenodd" d="M62.9584 9.63587H40.7991V4.41431L4.375 10.0362V59.314L40.7991 65.5877V57.8484H62.9584C63.6298 57.8835 64.2878 57.6508 64.7877 57.2013C65.2877 56.7518 65.5888 56.1222 65.625 55.4509V12.0312C65.5883 11.3602 65.2869 10.7312 64.787 10.2822C64.2871 9.83311 63.6295 9.60069 62.9584 9.63587ZM63.3084 55.849H40.7247L40.6875 51.7168H46.1278V46.9043H40.6459L40.6197 44.0606H46.1278V39.2481H40.5781L40.5519 36.4043H46.1278V31.5918H40.5344V28.7481H46.1278V23.9356H40.5344V21.0918H46.1278V16.2793H40.5344V11.9043H63.3084V55.849Z" fill="#20744A"/>
<path d="M49.1904 16.2727H58.647V21.0852H49.1904V16.2727ZM49.1904 23.9311H58.647V28.7436H49.1904V23.9311ZM49.1904 31.5896H58.647V36.4021H49.1904V31.5896ZM49.1904 39.248H58.647V44.0605H49.1904V39.248ZM49.1904 46.9065H58.647V51.719H49.1904V46.9065Z" fill="#20744A"/>
<path fill-rule="evenodd" clip-rule="evenodd" d="M13.8845 23.3472L18.5849 23.0781L21.5396 31.1916L25.031 22.7434L29.7314 22.4744L24.0235 33.9937L29.7314 45.5416L24.7616 45.2069L21.406 36.4044L18.0483 44.8722L13.4814 44.4697L18.7864 34.2694L13.8845 23.3472Z" fill="white"/>
</svg>
