<svg width="70" height="70" viewBox="0 0 70 70" fill="none" xmlns="http://www.w3.org/2000/svg">
<path d="M63.0132 6.56251H21.2298C20.8872 6.56165 20.5478 6.62842 20.2311 6.75899C19.9144 6.88956 19.6265 7.08136 19.3841 7.3234C19.1417 7.56544 18.9494 7.85296 18.8183 8.16946C18.6872 8.48597 18.6198 8.82524 18.6201 9.16783V20.7813L42.8336 27.8906L65.6251 20.7813V9.16783C65.6254 8.82506 65.558 8.48561 65.4268 8.16896C65.2955 7.85231 65.103 7.56469 64.8604 7.32262C64.6177 7.08055 64.3296 6.8888 64.0126 6.75836C63.6956 6.62792 63.356 6.56136 63.0132 6.56251Z" fill="#41A5EE"/>
<path d="M65.6251 20.7812H18.6201V35L42.8336 39.2656L65.6251 35V20.7812Z" fill="#2B7CD3"/>
<path d="M18.6201 35V49.2188L41.4095 52.0625L65.6251 49.2188V35H18.6201Z" fill="#185ABD"/>
<path d="M21.2298 63.4375H63.0111C63.354 63.4389 63.6939 63.3726 64.0111 63.2423C64.3283 63.112 64.6167 62.9203 64.8596 62.6782C65.1025 62.4361 65.2952 62.1484 65.4266 61.8316C65.5579 61.5148 65.6254 61.1751 65.6251 60.8322V49.2188H18.6201V60.8322C18.6198 61.1748 18.6872 61.514 18.8183 61.8305C18.9494 62.1471 19.1417 62.4346 19.3841 62.6766C19.6265 62.9187 19.9144 63.1105 20.2311 63.241C20.5478 63.3716 20.8872 63.4384 21.2298 63.4375Z" fill="#103F91"/>
<path opacity="0.1" d="M35.9495 17.9375H18.6201V53.4844H35.9495C36.64 53.4809 37.3014 53.2056 37.7903 52.7179C38.2792 52.2302 38.5562 51.5696 38.5614 50.8791V20.5428C38.5562 19.8523 38.2792 19.1916 37.7903 18.704C37.3014 18.2163 36.64 17.9409 35.9495 17.9375Z" fill="black"/>
<path opacity="0.2" d="M34.5254 19.3594H18.6201V54.9062H34.5254C35.2159 54.9028 35.8773 54.6274 36.3662 54.1398C36.8551 53.6521 37.1321 52.9914 37.1373 52.3009V21.9647C37.1321 21.2742 36.8551 20.6135 36.3662 20.1259C35.8773 19.6382 35.2159 19.3628 34.5254 19.3594Z" fill="black"/>
<path opacity="0.2" d="M34.5254 19.3594H18.6201V52.0625H34.5254C35.2159 52.0591 35.8773 51.7837 36.3662 51.296C36.8551 50.8084 37.1321 50.1477 37.1373 49.4572V21.9647C37.1321 21.2742 36.8551 20.6135 36.3662 20.1259C35.8773 19.6382 35.2159 19.3628 34.5254 19.3594Z" fill="black"/>
<path opacity="0.2" d="M33.1014 19.3594H18.6201V52.0625H33.1014C33.7919 52.0591 34.4532 51.7837 34.9421 51.296C35.431 50.8084 35.7081 50.1477 35.7132 49.4572V21.9647C35.7081 21.2742 35.431 20.6135 34.9421 20.1259C34.4532 19.6382 33.7919 19.3628 33.1014 19.3594Z" fill="black"/>
<path d="M6.98688 19.3594H33.1012C33.793 19.3588 34.4567 19.6329 34.9464 20.1214C35.4362 20.61 35.712 21.2729 35.7131 21.9647V48.0353C35.712 48.7271 35.4362 49.3901 34.9464 49.8786C34.4567 50.3671 33.793 50.6412 33.1012 50.6406H6.98688C6.64411 50.6418 6.30449 50.5752 5.98751 50.4448C5.67053 50.3144 5.38243 50.1226 5.13975 49.8805C4.89708 49.6385 4.70459 49.3508 4.57336 49.0342C4.44212 48.7175 4.37471 48.3781 4.375 48.0353V21.9647C4.37471 21.6219 4.44212 21.2825 4.57336 20.9658C4.70459 20.6492 4.89708 20.3616 5.13975 20.1195C5.38243 19.8774 5.67053 19.6857 5.98751 19.5552C6.30449 19.4248 6.64411 19.3582 6.98688 19.3594Z" fill="url(#paint0_linear_55_562)"/>
<path d="M15.0937 39.3487C15.1447 39.7512 15.1782 40.1019 15.1943 40.4009H15.2555C15.2774 40.1165 15.3248 39.7738 15.3977 39.3728C15.5071 38.7712 15.5333 38.6334 15.5924 38.3556L18.3377 26.5278H21.8902L24.734 38.1784C24.8982 38.8993 25.0165 39.63 25.0883 40.3659H25.1365C25.191 39.6496 25.2897 38.9373 25.4318 38.2331L27.7046 26.5125H30.9355L26.9455 43.4612H23.1677L20.4618 32.2481C20.383 31.9243 20.2941 31.5029 20.1949 30.9837C20.0957 30.4645 20.0345 30.0854 20.0112 29.8462H19.9652C19.9346 30.1218 19.8733 30.5309 19.7815 31.0734C19.6896 31.6159 19.6167 32.0184 19.5627 32.2809L17.0187 43.4678H13.1774L9.16553 26.5278H12.4468L14.9208 38.3796C14.993 38.6999 15.0506 39.0233 15.0937 39.3487Z" fill="white"/>
<defs>
<linearGradient id="paint0_linear_55_562" x1="9.83063" y1="17.3119" x2="30.2575" y2="52.6881" gradientUnits="userSpaceOnUse">
<stop stop-color="#2368C4"/>
<stop offset="0.5" stop-color="#1A5DBE"/>
<stop offset="1" stop-color="#1146AC"/>
</linearGradient>
</defs>
</svg>
