<svg width="70" height="70" viewBox="0 0 70 70" fill="none" xmlns="http://www.w3.org/2000/svg">
<path d="M42.8336 33.5781L18.6201 29.3125V60.8322C18.6198 61.1748 18.6872 61.514 18.8183 61.8306C18.9494 62.1471 19.1417 62.4346 19.3841 62.6766C19.6265 62.9187 19.9144 63.1105 20.2311 63.241C20.5478 63.3716 20.8872 63.4384 21.2298 63.4375H63.0111C63.354 63.4389 63.6939 63.3726 64.0111 63.2423C64.3283 63.112 64.6167 62.9203 64.8596 62.6782C65.1025 62.4361 65.2952 62.1484 65.4266 61.8316C65.5579 61.5148 65.6254 61.1751 65.6251 60.8322V49.2188L42.8336 33.5781Z" fill="#185C37"/>
<path d="M42.8336 6.56251H21.2298C20.8872 6.56164 20.5478 6.62841 20.2311 6.75898C19.9144 6.88955 19.6265 7.08135 19.3841 7.32339C19.1417 7.56543 18.9494 7.85295 18.8183 8.16946C18.6872 8.48596 18.6198 8.82524 18.6201 9.16782V20.7813L42.8336 35L55.6545 39.2656L65.6251 35V20.7813L42.8336 6.56251Z" fill="#21A366"/>
<path d="M18.6201 20.7812H42.8336V35H18.6201V20.7812Z" fill="#107C41"/>
<path opacity="0.1" d="M35.9495 17.9375H18.6201V53.4844H35.9495C36.64 53.4809 37.3014 53.2056 37.7903 52.7179C38.2792 52.2302 38.5562 51.5696 38.5614 50.8791V20.5428C38.5562 19.8523 38.2792 19.1916 37.7903 18.704C37.3014 18.2163 36.64 17.9409 35.9495 17.9375Z" fill="black"/>
<path opacity="0.2" d="M34.5254 19.3594H18.6201V54.9062H34.5254C35.2159 54.9028 35.8773 54.6274 36.3662 54.1398C36.8551 53.6521 37.1321 52.9914 37.1373 52.3009V21.9647C37.1321 21.2742 36.8551 20.6135 36.3662 20.1259C35.8773 19.6382 35.2159 19.3628 34.5254 19.3594Z" fill="black"/>
<path opacity="0.2" d="M34.5254 19.3594H18.6201V52.0625H34.5254C35.2159 52.0591 35.8773 51.7837 36.3662 51.296C36.8551 50.8084 37.1321 50.1477 37.1373 49.4572V21.9647C37.1321 21.2742 36.8551 20.6135 36.3662 20.1259C35.8773 19.6382 35.2159 19.3628 34.5254 19.3594Z" fill="black"/>
<path opacity="0.2" d="M33.1014 19.3594H18.6201V52.0625H33.1014C33.7919 52.0591 34.4532 51.7837 34.9421 51.296C35.431 50.8084 35.7081 50.1477 35.7132 49.4572V21.9647C35.7081 21.2742 35.431 20.6135 34.9421 20.1259C34.4532 19.6382 33.7919 19.3628 33.1014 19.3594Z" fill="black"/>
<path d="M6.98688 19.3594H33.1012C33.793 19.3588 34.4567 19.6329 34.9464 20.1214C35.4362 20.61 35.712 21.2729 35.7131 21.9647V48.0353C35.712 48.7271 35.4362 49.3901 34.9464 49.8786C34.4567 50.3671 33.793 50.6412 33.1012 50.6406H6.98688C6.64411 50.6418 6.30449 50.5752 5.98751 50.4448C5.67053 50.3144 5.38243 50.1226 5.13975 49.8805C4.89708 49.6385 4.70459 49.3508 4.57336 49.0342C4.44212 48.7175 4.37471 48.3781 4.375 48.0353V21.9647C4.37471 21.6219 4.44212 21.2825 4.57336 20.9658C4.70459 20.6492 4.89708 20.3616 5.13975 20.1195C5.38243 19.8774 5.67053 19.6857 5.98751 19.5552C6.30449 19.4248 6.64411 19.3582 6.98688 19.3594Z" fill="url(#paint0_linear_55_583)"/>
<path d="M12.4688 43.4722L17.9616 34.976L12.9303 26.5278H16.9706L19.7159 31.9375C19.9697 32.4494 20.1534 32.83 20.2366 33.0838H20.2737C20.4531 32.674 20.6427 32.2759 20.8425 31.8894L23.7781 26.5366H27.4969L22.3366 34.9366L27.6281 43.4788H23.6709L20.4991 37.5485C20.3522 37.2933 20.2271 37.0262 20.125 36.75H20.0725C19.9798 37.0192 19.8565 37.2768 19.705 37.5178L16.4391 43.4722H12.4688Z" fill="white"/>
<path d="M63.0132 6.56251H42.8335V20.7813H65.6251V9.16783C65.6253 8.82506 65.5579 8.48561 65.4267 8.16896C65.2955 7.85231 65.103 7.56469 64.8603 7.32262C64.6176 7.08055 64.3295 6.8888 64.0126 6.75836C63.6956 6.62792 63.356 6.56136 63.0132 6.56251Z" fill="#33C481"/>
<path d="M42.8335 35H65.6251V49.2188H42.8335V35Z" fill="#107C41"/>
<defs>
<linearGradient id="paint0_linear_55_583" x1="9.83063" y1="17.3119" x2="30.2575" y2="52.6881" gradientUnits="userSpaceOnUse">
<stop stop-color="#18884F"/>
<stop offset="0.5" stop-color="#117E43"/>
<stop offset="1" stop-color="#0B6631"/>
</linearGradient>
</defs>
</svg>
