<svg id="svg" version="1.1" xmlns="http://www.w3.org/2000/svg" xmlns:xlink="http://www.w3.org/1999/xlink" width="400" height="400" viewBox="0, 0, 400,400"><g id="svgg"><path id="path0" d="M261.600 92.651 C 256.709 93.129,251.359 94.471,247.200 96.262 C 243.686 97.776,234.400 102.567,234.400 102.866 C 234.400 103.050,234.175 103.203,233.900 103.207 C 233.343 103.215,232.412 103.936,226.845 108.669 C 224.730 110.468,222.305 112.853,221.456 113.971 C 220.606 115.089,219.391 116.441,218.756 116.975 C 218.121 117.510,216.009 120.434,214.063 123.474 C 208.547 132.086,192.279 156.677,189.968 159.893 C 182.347 170.501,167.512 180.061,153.600 183.331 C 152.170 183.667,150.460 184.075,149.800 184.238 C 149.140 184.402,125.380 184.641,97.000 184.770 L 45.400 185.004 42.600 185.942 C 31.224 189.750,23.617 198.223,21.589 209.344 C 21.394 210.413,20.957 211.712,20.617 212.230 C 19.972 213.214,19.622 337.711,20.266 337.067 C 20.412 336.921,20.930 338.376,21.417 340.301 C 24.257 351.535,31.716 359.745,42.311 363.298 L 45.000 364.200 199.400 364.200 C 329.899 364.200,354.110 364.114,355.800 363.645 C 366.638 360.635,375.531 351.156,377.915 340.070 C 378.307 338.250,378.756 336.890,378.914 337.047 C 379.510 337.643,379.250 120.452,378.653 119.486 C 378.353 118.999,377.792 117.250,377.408 115.600 C 375.579 107.750,370.554 100.962,363.269 96.500 C 362.102 95.785,361.067 95.200,360.969 95.200 C 360.871 95.200,360.028 94.858,359.096 94.441 C 354.979 92.598,356.239 92.645,308.400 92.577 C 283.430 92.542,262.370 92.575,261.600 92.651 " stroke="none" fill="#f7ce23" fill-rule="evenodd"></path><path id="path1" d="M24.566 138.700 C 24.429 139.305,24.055 140.700,23.736 141.800 C 22.762 145.157,21.771 202.818,22.688 202.791 C 22.860 202.786,23.720 201.481,24.600 199.891 C 28.017 193.716,34.792 188.256,42.400 185.541 L 45.000 184.614 96.800 184.383 C 154.277 184.126,149.791 184.342,158.627 181.408 C 175.783 175.712,185.931 166.759,197.800 146.847 C 198.680 145.371,200.138 143.091,201.039 141.781 C 201.941 140.472,202.892 138.995,203.153 138.500 L 203.628 137.600 114.222 137.600 L 24.815 137.600 24.566 138.700 " stroke="none" fill="#ee9f23" fill-rule="evenodd"></path><path id="path2" d="M20.167 337.363 C 19.529 338.981,19.829 343.762,20.734 346.400 C 21.224 347.830,21.811 349.630,22.039 350.400 C 23.384 354.949,26.583 360.148,30.055 363.426 C 33.483 366.663,40.089 370.719,41.505 370.456 C 41.783 370.405,42.115 370.633,42.242 370.964 C 42.401 371.380,42.811 371.498,43.571 371.346 C 44.222 371.216,44.899 371.345,45.235 371.663 C 46.064 372.450,353.119 372.466,353.949 371.679 C 354.282 371.364,354.934 371.254,355.599 371.400 C 356.390 371.574,356.766 371.464,356.940 371.011 C 357.112 370.563,357.474 370.454,358.191 370.634 C 358.795 370.785,359.200 370.716,359.200 370.462 C 359.200 370.229,359.875 369.725,360.700 369.343 C 368.057 365.937,374.866 358.256,377.140 350.800 C 377.375 350.030,378.025 347.940,378.584 346.156 C 379.604 342.900,379.815 340.775,379.350 338.450 C 378.961 336.506,378.596 336.946,377.887 340.213 C 375.096 353.076,364.659 362.625,351.471 364.383 C 347.105 364.965,52.095 364.965,47.729 364.383 C 34.565 362.628,24.832 353.740,21.425 340.363 C 20.732 337.641,20.384 336.811,20.167 337.363 " stroke="none" fill="#cdac1e" fill-rule="evenodd"></path><path id="path3" d="M49.200 117.465 C 44.171 118.150,37.837 120.365,35.711 122.182 C 35.442 122.412,34.542 123.131,33.711 123.779 C 25.140 130.469,22.352 138.316,22.467 155.424 L 22.535 165.400 22.818 154.800 C 23.081 144.964,23.841 138.826,24.931 137.736 C 25.007 137.660,65.252 137.644,114.366 137.699 L 203.664 137.800 201.532 141.000 C 200.359 142.760,198.680 145.400,197.800 146.866 C 185.769 166.910,175.789 175.710,158.627 181.408 C 149.791 184.342,154.277 184.126,96.800 184.383 L 45.000 184.614 42.400 185.541 C 35.600 187.967,27.793 193.902,25.483 198.402 C 24.793 199.746,24.793 199.762,25.483 198.815 C 30.306 192.195,35.429 188.342,42.600 185.942 L 45.400 185.004 97.000 184.770 C 125.380 184.641,149.140 184.402,149.800 184.238 C 150.460 184.075,152.170 183.667,153.600 183.331 C 167.512 180.061,182.347 170.501,189.968 159.893 C 195.754 151.841,217.694 118.076,217.425 117.640 C 217.250 117.357,51.265 117.184,49.200 117.465 M23.719 201.400 C 23.352 202.170,22.895 202.800,22.702 202.800 C 22.510 202.800,22.472 202.993,22.618 203.229 C 22.909 203.700,23.523 202.927,24.310 201.100 C 24.998 199.500,24.506 199.750,23.719 201.400 M124.500 364.700 C 165.805 364.756,233.395 364.756,274.700 364.700 C 316.005 364.644,282.210 364.598,199.600 364.598 C 116.990 364.598,83.195 364.644,124.500 364.700 " stroke="none" fill="#f8ac2b" fill-rule="evenodd"></path><path id="path4" d="M260.400 91.200 C 260.400 91.420,259.421 91.600,258.224 91.600 C 257.027 91.600,255.936 91.780,255.800 92.000 C 255.664 92.220,255.023 92.400,254.376 92.400 C 253.729 92.400,253.200 92.580,253.200 92.800 C 253.200 93.020,252.581 93.200,251.824 93.200 C 251.067 93.200,250.336 93.380,250.200 93.600 C 250.064 93.820,249.423 94.000,248.776 94.000 C 248.129 94.000,247.600 94.180,247.600 94.400 C 247.600 94.620,247.060 94.800,246.400 94.800 C 245.740 94.800,245.200 94.980,245.200 95.200 C 245.200 95.420,244.840 95.600,244.400 95.600 C 243.960 95.600,243.600 95.780,243.600 96.000 C 243.600 96.220,243.366 96.400,243.080 96.400 C 242.344 96.400,240.407 97.341,240.403 97.700 C 240.401 97.865,240.040 98.000,239.600 98.000 C 239.160 98.000,238.800 98.180,238.800 98.400 C 238.800 98.620,238.440 98.800,238.000 98.800 C 237.560 98.800,237.200 98.980,237.200 99.200 C 237.200 99.420,236.964 99.600,236.675 99.600 C 236.387 99.600,235.764 99.960,235.292 100.400 C 234.820 100.840,234.196 101.200,233.905 101.200 C 233.614 101.200,233.117 101.560,232.800 102.000 C 232.483 102.440,231.943 102.800,231.600 102.800 C 231.257 102.800,230.717 103.160,230.400 103.600 C 230.083 104.040,229.601 104.400,229.328 104.400 C 229.056 104.400,226.304 106.920,223.214 110.000 L 217.595 115.600 131.798 115.600 C 74.866 115.600,46.000 115.735,46.000 116.000 C 46.000 116.220,45.280 116.400,44.400 116.400 C 43.520 116.400,42.800 116.580,42.800 116.800 C 42.800 117.020,42.440 117.200,42.000 117.200 C 41.560 117.200,41.200 117.380,41.200 117.600 C 41.200 117.820,40.660 118.000,40.000 118.000 C 39.340 118.000,38.800 118.180,38.800 118.400 C 38.800 118.620,38.480 118.800,38.088 118.800 C 37.697 118.800,37.117 119.160,36.800 119.600 C 36.483 120.040,35.991 120.400,35.708 120.400 C 35.425 120.400,34.628 120.940,33.937 121.600 C 33.246 122.260,32.531 122.800,32.347 122.800 C 31.848 122.800,28.400 126.443,28.400 126.970 C 28.400 127.219,28.040 127.683,27.600 128.000 C 27.160 128.317,26.800 128.857,26.800 129.200 C 26.800 129.543,26.440 130.083,26.000 130.400 C 25.560 130.717,25.200 131.297,25.200 131.688 C 25.200 132.080,25.020 132.400,24.800 132.400 C 24.580 132.400,24.400 132.760,24.400 133.200 C 24.400 133.640,24.220 134.000,24.000 134.000 C 23.780 134.000,23.600 134.360,23.600 134.800 C 23.600 135.240,23.420 135.600,23.200 135.600 C 22.980 135.600,22.800 135.949,22.800 136.376 C 22.800 136.803,22.620 137.264,22.400 137.400 C 22.180 137.536,22.000 138.447,22.000 139.424 C 22.000 140.401,21.820 141.200,21.600 141.200 C 21.337 141.200,21.200 152.267,21.200 173.600 C 21.200 194.933,21.063 206.000,20.800 206.000 C 20.580 206.000,20.400 206.720,20.400 207.600 C 20.400 208.933,20.267 209.200,19.600 209.200 C 18.336 209.200,18.336 347.089,19.600 348.000 C 20.071 348.340,20.400 349.035,20.400 349.694 C 20.400 350.308,20.580 351.168,20.800 351.605 C 21.020 352.042,21.380 352.758,21.600 353.195 C 21.820 353.632,22.000 354.352,22.000 354.795 C 22.000 355.238,22.180 355.600,22.400 355.600 C 22.620 355.600,22.800 355.836,22.800 356.125 C 22.800 356.413,23.160 357.036,23.600 357.508 C 24.040 357.980,24.400 358.568,24.400 358.815 C 24.400 359.061,25.120 359.954,26.000 360.800 C 26.880 361.646,27.600 362.552,27.600 362.815 C 27.600 363.332,30.349 366.000,30.882 366.000 C 31.061 366.000,31.772 366.540,32.463 367.200 C 33.154 367.860,33.962 368.400,34.259 368.400 C 34.557 368.400,34.800 368.580,34.800 368.800 C 34.800 369.020,35.160 369.200,35.600 369.200 C 36.040 369.200,36.400 369.380,36.400 369.600 C 36.400 369.820,36.760 370.000,37.200 370.000 C 37.640 370.000,38.000 370.180,38.000 370.400 C 38.000 370.620,38.540 370.800,39.200 370.800 C 39.860 370.800,40.400 370.980,40.400 371.200 C 40.400 371.420,40.865 371.600,41.433 371.600 C 42.509 371.600,42.635 370.624,41.566 370.573 C 35.472 370.280,24.595 359.043,22.039 350.400 C 21.811 349.630,21.259 347.830,20.811 346.400 C 19.553 342.377,19.553 214.245,20.812 211.776 C 21.246 210.926,21.600 209.717,21.600 209.089 C 21.600 208.461,21.790 207.592,22.023 207.157 C 22.311 206.619,22.436 196.643,22.412 175.959 C 22.377 144.500,22.429 143.324,24.075 138.000 C 25.782 132.477,29.392 127.150,33.711 123.779 C 34.542 123.131,35.442 122.412,35.711 122.182 C 36.238 121.732,40.886 119.445,42.200 118.990 C 46.825 117.389,42.988 117.456,132.999 117.397 L 218.598 117.340 221.399 114.090 C 224.662 110.304,232.795 103.223,233.900 103.207 C 234.175 103.203,234.400 103.050,234.400 102.866 C 234.400 102.177,246.941 96.204,251.600 94.674 C 258.067 92.551,256.765 92.600,306.600 92.600 C 355.692 92.600,354.968 92.575,359.096 94.436 C 360.028 94.856,360.871 95.200,360.969 95.200 C 361.067 95.200,362.102 95.785,363.269 96.500 C 370.554 100.962,375.579 107.750,377.408 115.600 C 377.792 117.250,378.349 118.993,378.645 119.473 C 379.092 120.198,379.187 139.237,379.209 232.133 L 379.236 343.922 378.406 346.661 C 377.949 348.167,377.382 350.030,377.145 350.800 C 374.836 358.292,368.056 365.937,360.700 369.343 C 358.974 370.142,358.748 370.800,360.200 370.800 C 360.750 370.800,361.200 370.620,361.200 370.400 C 361.200 370.180,361.434 370.000,361.720 370.000 C 362.456 370.000,364.393 369.059,364.397 368.700 C 364.399 368.535,364.672 368.400,365.004 368.400 C 365.336 368.400,366.172 367.860,366.863 367.200 C 367.554 366.540,368.290 366.000,368.499 366.000 C 368.980 366.000,372.400 362.402,372.400 361.897 C 372.400 361.690,372.898 361.044,373.506 360.460 C 374.115 359.877,374.831 358.905,375.098 358.300 C 375.365 357.695,375.767 357.200,375.991 357.200 C 376.216 357.200,376.400 356.840,376.400 356.400 C 376.400 355.960,376.580 355.600,376.800 355.600 C 377.020 355.600,377.200 355.251,377.200 354.824 C 377.200 354.397,377.380 353.936,377.600 353.800 C 377.820 353.664,378.000 353.113,378.000 352.576 C 378.000 352.039,378.180 351.600,378.400 351.600 C 378.620 351.600,378.800 350.920,378.800 350.088 C 378.800 349.035,379.043 348.402,379.600 348.000 C 380.865 347.089,380.865 116.911,379.600 116.000 C 379.129 115.660,378.800 114.965,378.800 114.306 C 378.800 113.692,378.620 112.832,378.400 112.395 C 378.180 111.958,377.820 111.242,377.600 110.805 C 377.380 110.368,377.200 109.648,377.200 109.205 C 377.200 108.762,377.020 108.400,376.800 108.400 C 376.580 108.400,376.400 108.164,376.400 107.875 C 376.400 107.587,376.040 106.964,375.600 106.492 C 375.160 106.020,374.800 105.473,374.800 105.276 C 374.800 105.079,374.303 104.397,373.696 103.759 C 373.088 103.122,372.152 101.970,371.614 101.200 C 370.536 99.655,368.796 98.001,368.247 98.000 C 368.053 98.000,367.603 97.684,367.247 97.297 C 366.891 96.911,366.105 96.340,365.500 96.030 C 364.895 95.719,364.400 95.315,364.400 95.132 C 364.400 94.950,364.040 94.800,363.600 94.800 C 363.160 94.800,362.800 94.620,362.800 94.400 C 362.800 94.180,362.451 94.000,362.024 94.000 C 361.597 94.000,361.136 93.820,361.000 93.600 C 360.864 93.380,360.313 93.200,359.776 93.200 C 359.239 93.200,358.800 93.020,358.800 92.800 C 358.800 92.580,358.260 92.400,357.600 92.400 C 356.940 92.400,356.400 92.220,356.400 92.000 C 356.400 91.780,355.680 91.600,354.800 91.600 C 353.920 91.600,353.200 91.420,353.200 91.200 C 353.200 90.936,337.467 90.800,306.800 90.800 C 276.133 90.800,260.400 90.936,260.400 91.200 M356.933 371.030 C 356.770 371.455,356.395 371.585,355.778 371.430 C 354.755 371.173,353.600 371.498,353.600 372.043 C 353.600 372.508,355.308 372.502,356.481 372.033 C 356.987 371.830,357.755 371.551,358.189 371.411 C 358.848 371.199,358.881 371.096,358.389 370.785 C 357.550 370.254,357.209 370.311,356.933 371.030 M43.067 371.467 C 42.469 372.064,42.876 372.400,44.200 372.400 C 45.649 372.400,46.075 371.868,44.967 371.443 C 44.140 371.125,43.399 371.135,43.067 371.467 M46.267 372.266 C 46.120 372.413,46.000 372.683,46.000 372.867 C 46.000 373.050,115.135 373.200,199.633 373.200 C 322.362 373.200,353.233 373.099,353.100 372.700 C 352.919 372.157,46.809 371.724,46.267 372.266 " stroke="none" fill="#f7c756" fill-rule="evenodd"></path></g></svg>