<svg width="70" height="70" viewBox="0 0 70 70" fill="none" xmlns="http://www.w3.org/2000/svg">
<path d="M41.4092 37.8437L37.137 6.5625H36.8176C29.3593 6.57517 22.2093 9.54001 16.9305 14.8089C11.6517 20.0779 8.67356 27.2223 8.64697 34.6806V35L41.4092 37.8437Z" fill="#ED6C47"/>
<path d="M37.4566 6.5625H37.1372V35L51.38 40.6875L65.625 35V34.6806C65.5984 27.2227 62.6206 20.0786 57.3423 14.8097C52.064 9.54084 44.9145 6.57575 37.4566 6.5625Z" fill="#FF8F6B"/>
<path d="M65.6248 35V35.3128C65.5971 42.7721 62.6181 49.9173 57.3388 55.1871C52.0596 60.4569 44.9091 63.4231 37.4498 63.4375H36.822C29.363 63.422 22.2132 60.4554 16.9342 55.1858C11.6551 49.9162 8.67585 42.7718 8.64697 35.3128V35H65.6248Z" fill="#D35230"/>
<path opacity="0.1" d="M38.5611 20.5384V50.8813C38.5571 51.3975 38.401 51.9011 38.1123 52.3291C37.8236 52.7571 37.4151 53.0905 36.9379 53.2875C36.6257 53.4166 36.2914 53.4842 35.9536 53.4866H15.3714C14.9719 53.0286 14.5917 52.5543 14.2317 52.0647C10.604 47.2343 8.64399 41.3559 8.647 35.315V34.6894C8.63948 29.2401 10.2347 23.9089 13.2342 19.3594C13.5456 18.871 13.8784 18.3966 14.2317 17.9375H35.9536C36.6426 17.9421 37.3022 18.2174 37.79 18.7039C38.2778 19.1905 38.5548 19.8494 38.5611 20.5384Z" fill="black"/>
<path opacity="0.2" d="M37.137 21.9625V52.3053C37.1341 52.6417 37.0665 52.9744 36.9379 53.2853C36.7406 53.7621 36.4071 54.1701 35.9791 54.4584C35.5511 54.7467 35.0477 54.9025 34.5317 54.9062H16.6686C16.2179 54.4483 15.7855 53.9744 15.3714 53.4844C14.9719 53.0265 14.5917 52.5521 14.2317 52.0625C10.604 47.2321 8.64399 41.3538 8.647 35.3128V34.6872C8.6399 29.2386 10.2351 23.9083 13.2342 19.3594H34.5295C35.2189 19.3639 35.8788 19.6395 36.3667 20.1266C36.8546 20.6137 37.1313 21.2731 37.137 21.9625Z" fill="black"/>
<path opacity="0.2" d="M37.137 21.9625V49.4616C37.1307 50.1506 36.8537 50.8095 36.3659 51.2961C35.8781 51.7827 35.2185 52.0579 34.5295 52.0625H14.2317C10.604 47.2321 8.64399 41.3538 8.647 35.3128V34.6872C8.6399 29.2386 10.2351 23.9083 13.2342 19.3594H34.5295C35.2189 19.3639 35.8788 19.6395 36.3667 20.1266C36.8546 20.6137 37.1313 21.2731 37.137 21.9625Z" fill="black"/>
<path opacity="0.2" d="M35.7129 21.9625V49.4616C35.7066 50.1506 35.4297 50.8095 34.9419 51.2961C34.454 51.7827 33.7944 52.0579 33.1054 52.0625H14.2317C10.604 47.2321 8.64399 41.3538 8.647 35.3128V34.6872C8.6399 29.2386 10.2351 23.9083 13.2342 19.3594H33.1054C33.7948 19.3639 34.4547 19.6395 34.9426 20.1266C35.4305 20.6137 35.7072 21.2731 35.7129 21.9625Z" fill="black"/>
<path d="M6.98688 19.3594H33.1012C33.793 19.3588 34.4567 19.6329 34.9464 20.1214C35.4362 20.61 35.712 21.2729 35.7131 21.9647V48.0353C35.712 48.7271 35.4362 49.3901 34.9464 49.8786C34.4567 50.3671 33.793 50.6412 33.1012 50.6406H6.98688C6.64411 50.6418 6.30449 50.5752 5.98751 50.4448C5.67053 50.3144 5.38243 50.1226 5.13975 49.8805C4.89708 49.6385 4.70459 49.3508 4.57336 49.0342C4.44212 48.7175 4.37471 48.3781 4.375 48.0353V21.9647C4.37471 21.6219 4.44212 21.2825 4.57336 20.9658C4.70459 20.6492 4.89708 20.3616 5.13975 20.1195C5.38243 19.8774 5.67053 19.6857 5.98751 19.5552C6.30449 19.4248 6.64411 19.3582 6.98688 19.3594Z" fill="url(#paint0_linear_55_573)"/>
<path d="M20.3286 26.3112C22.0283 26.1994 23.7128 26.6922 25.0842 27.7025C25.6477 28.2041 26.0894 28.8274 26.376 29.5252C26.6625 30.223 26.7863 30.9769 26.738 31.7297C26.7565 32.79 26.4735 33.8338 25.922 34.7397C25.3625 35.63 24.5582 36.3401 23.6055 36.785C22.5162 37.2907 21.3258 37.5406 20.1252 37.5156H16.8155V43.6406H13.4336V26.3112H20.3286ZM16.8133 34.8687H19.7248C20.6479 34.9343 21.5632 34.6613 22.2995 34.1009C22.6005 33.8139 22.8348 33.4644 22.9859 33.077C23.1371 32.6896 23.2015 32.2737 23.1745 31.8587C23.1745 29.9498 22.0626 28.9946 19.8386 28.9931H16.8133V34.8687Z" fill="white"/>
<defs>
<linearGradient id="paint0_linear_55_573" x1="9.83063" y1="17.3119" x2="30.2575" y2="52.6881" gradientUnits="userSpaceOnUse">
<stop stop-color="#CA4C28"/>
<stop offset="0.5" stop-color="#C5401E"/>
<stop offset="1" stop-color="#B62F14"/>
</linearGradient>
</defs>
</svg>
