<svg id="Layer_1" viewBox="0 0 512 512" xmlns="http://www.w3.org/2000/svg" data-name="Layer 1"><path d="m444.911 282a193.235 193.235 0 0 1 -24.044 57.938l11.1 18.594 13.523 22.645a238.306 238.306 0 0 1 -46.019 46.047l-22.644-13.551-18.594-11.1a193.138 193.138 0 0 1 -57.967 24.044l-5.266 20.946-6.47 25.617a240.873 240.873 0 0 1 -65.079 0l-6.441-25.617-5.3-20.954a193.282 193.282 0 0 1 -57.938-24.044l-18.594 11.1-22.645 13.522a238.329 238.329 0 0 1 -46.047-46.018l13.552-22.645 11.1-18.594a193.091 193.091 0 0 1 -24.044-57.967l-20.954-5.275-25.618-6.441a240.324 240.324 0 0 1 0-65.107l25.613-6.44 20.954-5.3a193.245 193.245 0 0 1 24.044-57.938l-11.1-18.594-13.556-22.646a238.329 238.329 0 0 1 46.047-46.022l22.645 13.523 18.594 11.1a193.254 193.254 0 0 1 57.937-24.036l5.3-20.955 6.441-25.617a240.119 240.119 0 0 1 65.079 0l6.48 25.617 5.275 20.955a193.11 193.11 0 0 1 57.962 24.043l18.594-11.1 22.644-13.53a237.347 237.347 0 0 1 46.019 46.018l-13.523 22.645-11.1 18.594a193.1 193.1 0 0 1 24.044 57.967l20.954 5.275 25.618 6.441a240.324 240.324 0 0 1 0 65.107l-25.618 6.441z" fill="#4d6c8f" fill-rule="evenodd"/><path d="m381.465 237.7a125.465 125.465 0 1 1 -125.465-125.467 125.486 125.486 0 0 1 125.465 125.467z" fill="#d5e3f2" fill-rule="evenodd"/><path d="m306.973 481.078h200.539v-70.79c0-25.793-30.164-54.849-59.774-54.849h-80.991c-29.61 0-59.774 29.056-59.774 54.849z" fill="#69a7ff" fill-rule="evenodd"/><path d="m428.707 332.59c-1.341 10.9-1.049 18.128 7.927 22.849-4.226 14.689-16.758 22.149-29.406 22.383-12.62-.234-25.151-7.694-29.377-22.383 8.976-4.721 9.268-11.949 7.927-22.849z" fill="#f5ad65" fill-rule="evenodd"/><path d="m466.273 411.832a7.184 7.184 0 1 1 14.368 0v69.246h-14.368z" fill="#4c8fed"/><path d="m430.572 350.28a51.609 51.609 0 0 1 -46.659 0c2.943-4.429 2.8-10.2 1.865-17.69h42.929c-.933 7.49-1.078 13.261 1.865 17.69z" fill="#e0974e" fill-rule="evenodd"/><path d="m354.39 276.547a52.853 52.853 0 0 1 105.705 0c0 96.233-105.705 96.233-105.705 0z" fill="#fbbd80" fill-rule="evenodd"/><path d="m4.488 481.078h200.539v-70.79c0-25.793-30.164-54.849-59.774-54.849h-80.991c-29.61 0-59.774 29.056-59.774 54.849z" fill="#45bf64" fill-rule="evenodd"/><path d="m126.193 332.59c-1.312 10.9-1.02 18.128 7.956 22.849-4.226 14.689-16.757 22.149-29.406 22.383-12.648-.234-25.151-7.694-29.377-22.383 8.976-4.721 9.268-11.949 7.927-22.849z" fill="#f5ad65" fill-rule="evenodd"/><path d="m29.319 481.078v-69.246a7.2 7.2 0 0 1 14.4 0v69.246z" fill="#35ab52"/><g fill-rule="evenodd"><path d="m128.058 350.28a51.548 51.548 0 0 1 -46.63 0c2.943-4.429 2.769-10.2 1.865-17.69h42.9c-.9 7.49-1.049 13.261 1.865 17.69z" fill="#e0974e"/><path d="m51.905 276.547a52.853 52.853 0 0 1 105.705 0c0 96.233-105.705 96.233-105.705 0z" fill="#fbbd80"/><path d="m239.155 48.787 5.3-20.955 6.445-25.617q9.311-1.267 18.827-1.807c-4.547-.262-9.122-.408-13.727-.408a239.84 239.84 0 0 0 -32.554 2.215l-6.441 25.617-5.3 20.955a193.713 193.713 0 0 0 -43.832 16.058l13.348 7.985a192.933 192.933 0 0 1 57.938-24.043zm-131.672 68.08-13.552-22.645a239.2 239.2 0 0 1 34.39-36.6l-15.8-9.413a238.329 238.329 0 0 0 -46.044 46.013l13.552 22.645 11.1 18.594a193.245 193.245 0 0 0 -24.04 57.939l-20.954 5.3-25.618 6.441a240.324 240.324 0 0 0 0 65.107l25.618 6.441 5.77 1.458v-1.6a52.068 52.068 0 0 1 .262-5.246l-4.2-1.05a240.324 240.324 0 0 1 0-65.107l25.621-6.444 20.955-5.3a193.243 193.243 0 0 1 24.043-57.938z" fill="#3b5c82"/><path d="m147.818 246.033c-.175-2.769-.263-5.538-.263-8.335a125.46 125.46 0 0 1 116.955-125.173c-2.827-.205-5.654-.292-8.51-.292a125.468 125.468 0 0 0 -125.261 118.324 53.29 53.29 0 0 1 17.079 15.476zm62.688 100.459a125.845 125.845 0 0 1 -53.275-60.386 96.768 96.768 0 0 1 -4.459 22.907 125.57 125.57 0 0 0 63.213 47.621 64.367 64.367 0 0 1 -5.479-10.142z" fill="#b7cfe8"/><path d="m21.45 418.594c0-24.51 27.22-51.964 55.315-54.645.787-.058 1.544-.117 2.3-.146-.379-.612-.728-1.224-1.078-1.865a33.265 33.265 0 0 1 -2.623-6.5h-11.1c-29.61 0-59.774 29.056-59.774 54.849v70.79h16.96z" fill="#35ab52"/><path d="m67.585 276.547a53 53 0 0 1 45-52.255 49.542 49.542 0 0 0 -7.84-.583 53.015 53.015 0 0 0 -52.578 47.591 52.068 52.068 0 0 0 -.262 5.246v1.6c.437 34.1 14.281 55.839 31.825 65.223 1.37.729 2.769 1.4 4.168 1.982a44.072 44.072 0 0 0 24.685 2.652 47.219 47.219 0 0 1 -24.306-12.794q-1.312-1.268-2.536-2.623c-9.559-10.579-16.408-26.375-17.865-47.388-.2-2.8-.291-5.683-.291-8.655z" fill="#f5ad65"/><path d="m370.069 276.547a53 53 0 0 1 45-52.255 49.52 49.52 0 0 0 -7.839-.583 53.014 53.014 0 0 0 -52.578 47.591 51.776 51.776 0 0 0 -.262 5.246c0 .524 0 1.078.029 1.6.408 34.1 14.251 55.839 31.8 65.223 1.37.729 2.769 1.4 4.168 1.982a44.069 44.069 0 0 0 24.684 2.652 47.222 47.222 0 0 1 -24.306-12.794c-.845-.845-1.719-1.719-2.535-2.623-9.559-10.579-16.379-26.375-17.865-47.388-.2-2.8-.292-5.683-.292-8.655z" fill="#f5ad65"/><path d="m323.934 418.594c0-24.51 27.221-51.964 55.345-54.645.757-.058 1.515-.117 2.3-.146-.408-.612-.758-1.224-1.107-1.865a33.2 33.2 0 0 1 -2.623-6.5h-11.1c-29.61 0-59.774 29.056-59.774 54.849v70.79h16.961z" fill="#4c8fed"/><path d="m432.933 363.745h31.767a51.554 51.554 0 0 1 15.242 2.419c-9.7-6.558-20.984-10.725-32.2-10.725h-11.1a32.7 32.7 0 0 1 -3.7 8.306z" fill="#4c8fed"/><path d="m155.716 512h200.568v-70.761c0-25.822-30.164-54.849-59.774-54.849h-81.02c-29.61 0-59.774 29.027-59.774 54.849z" fill="#ff3d50"/><path d="m277.45 363.541c-1.312 10.871-1.049 18.128 7.927 22.849-4.226 14.688-16.729 22.149-29.377 22.383-12.648-.234-25.18-7.7-29.377-22.383 8.976-4.721 9.239-11.978 7.927-22.849z" fill="#f5ad65"/></g><path d="m315.016 442.783a7.2 7.2 0 0 1 14.4 0v69.217h-14.4zm-134.47 69.217h14.4v-69.217a7.2 7.2 0 0 0 -14.4 0z" fill="#e32639"/><path d="m279.315 381.2a51.459 51.459 0 0 1 -46.63 0c2.914-4.4 2.769-10.171 1.865-17.661h42.9c-.9 7.49-1.049 13.261 1.865 17.661z" fill="#e0974e" fill-rule="evenodd"/><path d="m203.162 307.468a52.838 52.838 0 0 1 105.676 0c0 96.233-105.676 96.233-105.676 0z" fill="#fbbd80" fill-rule="evenodd"/><path d="m130.448 363.745h31.767a51.549 51.549 0 0 1 15.242 2.419c-9.7-6.558-20.984-10.725-32.2-10.725h-11.1a32.665 32.665 0 0 1 -3.7 8.306z" fill="#35ab52" fill-rule="evenodd"/><path d="m218.812 307.468a53.053 53.053 0 0 1 45.028-52.255 53.664 53.664 0 0 0 -7.84-.583 53.019 53.019 0 0 0 -52.576 47.621 51.641 51.641 0 0 0 -.262 5.217v1.632c.437 34.1 14.281 55.84 31.825 65.224 1.37.729 2.74 1.37 4.139 1.953a43.957 43.957 0 0 0 24.714 2.681 47 47 0 0 1 -24.306-12.794q-1.312-1.267-2.536-2.623c-9.559-10.608-16.408-26.4-17.894-47.417-.175-2.8-.292-5.654-.292-8.656z" fill="#f5ad65" fill-rule="evenodd"/><path d="m172.678 449.545c0-24.51 27.22-51.964 55.344-54.645.758-.088 1.544-.117 2.3-.175a19.323 19.323 0 0 1 -1.078-1.865 31.99 31.99 0 0 1 -2.623-6.47h-11.131c-29.61 0-59.774 29.027-59.774 54.849v70.761h16.962z" fill="#e32639" fill-rule="evenodd"/><path d="m281.705 394.7h31.767a50.586 50.586 0 0 1 15.213 2.419c-9.676-6.558-20.984-10.725-32.175-10.725h-11.133a31.637 31.637 0 0 1 -3.672 8.306z" fill="#e32639" fill-rule="evenodd"/></svg>